<?xml version="1.0" encoding="utf-8" standalone="no"?>
<!DOCTYPE svg PUBLIC "-//W3C//DTD SVG 1.1//EN"
  "http://www.w3.org/Graphics/SVG/1.1/DTD/svg11.dtd">
<!-- Created with matplotlib (https://matplotlib.org/) -->
<svg height="720pt" version="1.1" viewBox="0 0 1080 720" width="1080pt" xmlns="http://www.w3.org/2000/svg" xmlns:xlink="http://www.w3.org/1999/xlink">
 <defs>
  <style type="text/css">
*{stroke-linecap:butt;stroke-linejoin:round;}
  </style>
 </defs>
 <g id="figure_1">
  <g id="patch_1">
   <path d="M 0 720 
L 1080 720 
L 1080 0 
L 0 0 
z
" style="fill:#ffffff;"/>
  </g>
  <g id="axes_1">
   <g id="patch_2">
    <path d="M 135 630 
L 972 630 
L 972 86.4 
L 135 86.4 
z
" style="fill:#eaeaf2;"/>
   </g>
   <g id="matplotlib.axis_1">
    <g id="xtick_1">
     <g id="line2d_1">
      <path clip-path="url(#p878aa60a67)" d="M 250.503266 630 
L 250.503266 86.4 
" style="fill:none;stroke:#ffffff;stroke-linecap:round;"/>
     </g>
     <g id="text_1">
      <!-- 2018-09 -->
      <defs>
       <path d="M 50.34375 8.453125 
L 50.34375 0 
L 3.03125 0 
Q 2.9375 3.171875 4.046875 6.109375 
Q 5.859375 10.9375 9.828125 15.625 
Q 13.8125 20.3125 21.34375 26.46875 
Q 33.015625 36.03125 37.109375 41.625 
Q 41.21875 47.21875 41.21875 52.203125 
Q 41.21875 57.421875 37.46875 61 
Q 33.734375 64.59375 27.734375 64.59375 
Q 21.390625 64.59375 17.578125 60.78125 
Q 13.765625 56.984375 13.71875 50.25 
L 4.6875 51.171875 
Q 5.609375 61.28125 11.65625 66.578125 
Q 17.71875 71.875 27.9375 71.875 
Q 38.234375 71.875 44.234375 66.15625 
Q 50.25 60.453125 50.25 52 
Q 50.25 47.703125 48.484375 43.546875 
Q 46.734375 39.40625 42.65625 34.8125 
Q 38.578125 30.21875 29.109375 22.21875 
Q 21.1875 15.578125 18.9375 13.203125 
Q 16.703125 10.84375 15.234375 8.453125 
z
" id="ArialMT-50"/>
       <path d="M 4.15625 35.296875 
Q 4.15625 48 6.765625 55.734375 
Q 9.375 63.484375 14.515625 67.671875 
Q 19.671875 71.875 27.484375 71.875 
Q 33.25 71.875 37.59375 69.546875 
Q 41.9375 67.234375 44.765625 62.859375 
Q 47.609375 58.5 49.21875 52.21875 
Q 50.828125 45.953125 50.828125 35.296875 
Q 50.828125 22.703125 48.234375 14.96875 
Q 45.65625 7.234375 40.5 3 
Q 35.359375 -1.21875 27.484375 -1.21875 
Q 17.140625 -1.21875 11.234375 6.203125 
Q 4.15625 15.140625 4.15625 35.296875 
z
M 13.1875 35.296875 
Q 13.1875 17.671875 17.3125 11.828125 
Q 21.4375 6 27.484375 6 
Q 33.546875 6 37.671875 11.859375 
Q 41.796875 17.71875 41.796875 35.296875 
Q 41.796875 52.984375 37.671875 58.78125 
Q 33.546875 64.59375 27.390625 64.59375 
Q 21.34375 64.59375 17.71875 59.46875 
Q 13.1875 52.9375 13.1875 35.296875 
z
" id="ArialMT-48"/>
       <path d="M 37.25 0 
L 28.46875 0 
L 28.46875 56 
Q 25.296875 52.984375 20.140625 49.953125 
Q 14.984375 46.921875 10.890625 45.40625 
L 10.890625 53.90625 
Q 18.265625 57.375 23.78125 62.296875 
Q 29.296875 67.234375 31.59375 71.875 
L 37.25 71.875 
z
" id="ArialMT-49"/>
       <path d="M 17.671875 38.8125 
Q 12.203125 40.828125 9.5625 44.53125 
Q 6.9375 48.25 6.9375 53.421875 
Q 6.9375 61.234375 12.546875 66.546875 
Q 18.171875 71.875 27.484375 71.875 
Q 36.859375 71.875 42.578125 66.421875 
Q 48.296875 60.984375 48.296875 53.171875 
Q 48.296875 48.1875 45.671875 44.5 
Q 43.0625 40.828125 37.75 38.8125 
Q 44.34375 36.671875 47.78125 31.875 
Q 51.21875 27.09375 51.21875 20.453125 
Q 51.21875 11.28125 44.71875 5.03125 
Q 38.234375 -1.21875 27.640625 -1.21875 
Q 17.046875 -1.21875 10.546875 5.046875 
Q 4.046875 11.328125 4.046875 20.703125 
Q 4.046875 27.6875 7.59375 32.390625 
Q 11.140625 37.109375 17.671875 38.8125 
z
M 15.921875 53.71875 
Q 15.921875 48.640625 19.1875 45.40625 
Q 22.46875 42.1875 27.6875 42.1875 
Q 32.765625 42.1875 36.015625 45.375 
Q 39.265625 48.578125 39.265625 53.21875 
Q 39.265625 58.0625 35.90625 61.359375 
Q 32.5625 64.65625 27.59375 64.65625 
Q 22.5625 64.65625 19.234375 61.421875 
Q 15.921875 58.203125 15.921875 53.71875 
z
M 13.09375 20.65625 
Q 13.09375 16.890625 14.875 13.375 
Q 16.65625 9.859375 20.171875 7.921875 
Q 23.6875 6 27.734375 6 
Q 34.03125 6 38.125 10.046875 
Q 42.234375 14.109375 42.234375 20.359375 
Q 42.234375 26.703125 38.015625 30.859375 
Q 33.796875 35.015625 27.4375 35.015625 
Q 21.234375 35.015625 17.15625 30.90625 
Q 13.09375 26.8125 13.09375 20.65625 
z
" id="ArialMT-56"/>
       <path d="M 3.171875 21.484375 
L 3.171875 30.328125 
L 30.171875 30.328125 
L 30.171875 21.484375 
z
" id="ArialMT-45"/>
       <path d="M 5.46875 16.546875 
L 13.921875 17.328125 
Q 14.984375 11.375 18.015625 8.6875 
Q 21.046875 6 25.78125 6 
Q 29.828125 6 32.875 7.859375 
Q 35.9375 9.71875 37.890625 12.8125 
Q 39.84375 15.921875 41.15625 21.1875 
Q 42.484375 26.46875 42.484375 31.9375 
Q 42.484375 32.515625 42.4375 33.6875 
Q 39.796875 29.5 35.234375 26.875 
Q 30.671875 24.265625 25.34375 24.265625 
Q 16.453125 24.265625 10.296875 30.703125 
Q 4.15625 37.15625 4.15625 47.703125 
Q 4.15625 58.59375 10.578125 65.234375 
Q 17 71.875 26.65625 71.875 
Q 33.640625 71.875 39.421875 68.109375 
Q 45.21875 64.359375 48.21875 57.390625 
Q 51.21875 50.4375 51.21875 37.25 
Q 51.21875 23.53125 48.234375 15.40625 
Q 45.265625 7.28125 39.375 3.03125 
Q 33.5 -1.21875 25.59375 -1.21875 
Q 17.1875 -1.21875 11.859375 3.4375 
Q 6.546875 8.109375 5.46875 16.546875 
z
M 41.453125 48.140625 
Q 41.453125 55.71875 37.421875 60.15625 
Q 33.40625 64.59375 27.734375 64.59375 
Q 21.875 64.59375 17.53125 59.8125 
Q 13.1875 55.03125 13.1875 47.40625 
Q 13.1875 40.578125 17.3125 36.296875 
Q 21.4375 32.03125 27.484375 32.03125 
Q 33.59375 32.03125 37.515625 36.296875 
Q 41.453125 40.578125 41.453125 48.140625 
z
" id="ArialMT-57"/>
      </defs>
      <g style="fill:#262626;" transform="translate(230.320844 647.373594)scale(0.11 -0.11)">
       <use xlink:href="#ArialMT-50"/>
       <use x="55.615234" xlink:href="#ArialMT-48"/>
       <use x="111.230469" xlink:href="#ArialMT-49"/>
       <use x="166.845703" xlink:href="#ArialMT-56"/>
       <use x="222.460938" xlink:href="#ArialMT-45"/>
       <use x="255.761719" xlink:href="#ArialMT-48"/>
       <use x="311.376953" xlink:href="#ArialMT-57"/>
      </g>
     </g>
    </g>
    <g id="xtick_2">
     <g id="line2d_2">
      <path clip-path="url(#p878aa60a67)" d="M 389.471693 630 
L 389.471693 86.4 
" style="fill:none;stroke:#ffffff;stroke-linecap:round;"/>
     </g>
     <g id="text_2">
      <!-- 2018-11 -->
      <g style="fill:#262626;" transform="translate(369.295287 647.373594)scale(0.11 -0.11)">
       <use xlink:href="#ArialMT-50"/>
       <use x="55.615234" xlink:href="#ArialMT-48"/>
       <use x="111.230469" xlink:href="#ArialMT-49"/>
       <use x="166.845703" xlink:href="#ArialMT-56"/>
       <use x="222.460938" xlink:href="#ArialMT-45"/>
       <use x="255.761719" xlink:href="#ArialMT-49"/>
       <use x="311.267578" xlink:href="#ArialMT-49"/>
      </g>
     </g>
    </g>
    <g id="xtick_3">
     <g id="line2d_3">
      <path clip-path="url(#p878aa60a67)" d="M 528.44012 630 
L 528.44012 86.4 
" style="fill:none;stroke:#ffffff;stroke-linecap:round;"/>
     </g>
     <g id="text_3">
      <!-- 2019-01 -->
      <g style="fill:#262626;" transform="translate(508.257698 647.373594)scale(0.11 -0.11)">
       <use xlink:href="#ArialMT-50"/>
       <use x="55.615234" xlink:href="#ArialMT-48"/>
       <use x="111.230469" xlink:href="#ArialMT-49"/>
       <use x="166.845703" xlink:href="#ArialMT-57"/>
       <use x="222.460938" xlink:href="#ArialMT-45"/>
       <use x="255.761719" xlink:href="#ArialMT-48"/>
       <use x="311.376953" xlink:href="#ArialMT-49"/>
      </g>
     </g>
    </g>
    <g id="xtick_4">
     <g id="line2d_4">
      <path clip-path="url(#p878aa60a67)" d="M 662.852205 630 
L 662.852205 86.4 
" style="fill:none;stroke:#ffffff;stroke-linecap:round;"/>
     </g>
     <g id="text_4">
      <!-- 2019-03 -->
      <defs>
       <path d="M 4.203125 18.890625 
L 12.984375 20.0625 
Q 14.5 12.59375 18.140625 9.296875 
Q 21.78125 6 27 6 
Q 33.203125 6 37.46875 10.296875 
Q 41.75 14.59375 41.75 20.953125 
Q 41.75 27 37.796875 30.921875 
Q 33.84375 34.859375 27.734375 34.859375 
Q 25.25 34.859375 21.53125 33.890625 
L 22.515625 41.609375 
Q 23.390625 41.5 23.921875 41.5 
Q 29.546875 41.5 34.03125 44.421875 
Q 38.53125 47.359375 38.53125 53.46875 
Q 38.53125 58.296875 35.25 61.46875 
Q 31.984375 64.65625 26.8125 64.65625 
Q 21.6875 64.65625 18.265625 61.421875 
Q 14.84375 58.203125 13.875 51.765625 
L 5.078125 53.328125 
Q 6.6875 62.15625 12.390625 67.015625 
Q 18.109375 71.875 26.609375 71.875 
Q 32.46875 71.875 37.390625 69.359375 
Q 42.328125 66.84375 44.9375 62.5 
Q 47.5625 58.15625 47.5625 53.265625 
Q 47.5625 48.640625 45.0625 44.828125 
Q 42.578125 41.015625 37.703125 38.765625 
Q 44.046875 37.3125 47.5625 32.6875 
Q 51.078125 28.078125 51.078125 21.140625 
Q 51.078125 11.765625 44.234375 5.25 
Q 37.40625 -1.265625 26.953125 -1.265625 
Q 17.53125 -1.265625 11.296875 4.34375 
Q 5.078125 9.96875 4.203125 18.890625 
z
" id="ArialMT-51"/>
      </defs>
      <g style="fill:#262626;" transform="translate(642.669783 647.373594)scale(0.11 -0.11)">
       <use xlink:href="#ArialMT-50"/>
       <use x="55.615234" xlink:href="#ArialMT-48"/>
       <use x="111.230469" xlink:href="#ArialMT-49"/>
       <use x="166.845703" xlink:href="#ArialMT-57"/>
       <use x="222.460938" xlink:href="#ArialMT-45"/>
       <use x="255.761719" xlink:href="#ArialMT-48"/>
       <use x="311.376953" xlink:href="#ArialMT-51"/>
      </g>
     </g>
    </g>
    <g id="xtick_5">
     <g id="line2d_5">
      <path clip-path="url(#p878aa60a67)" d="M 801.820631 630 
L 801.820631 86.4 
" style="fill:none;stroke:#ffffff;stroke-linecap:round;"/>
     </g>
     <g id="text_5">
      <!-- 2019-05 -->
      <defs>
       <path d="M 4.15625 18.75 
L 13.375 19.53125 
Q 14.40625 12.796875 18.140625 9.390625 
Q 21.875 6 27.15625 6 
Q 33.5 6 37.890625 10.78125 
Q 42.28125 15.578125 42.28125 23.484375 
Q 42.28125 31 38.0625 35.34375 
Q 33.84375 39.703125 27 39.703125 
Q 22.75 39.703125 19.328125 37.765625 
Q 15.921875 35.84375 13.96875 32.765625 
L 5.71875 33.84375 
L 12.640625 70.609375 
L 48.25 70.609375 
L 48.25 62.203125 
L 19.671875 62.203125 
L 15.828125 42.96875 
Q 22.265625 47.46875 29.34375 47.46875 
Q 38.71875 47.46875 45.15625 40.96875 
Q 51.609375 34.46875 51.609375 24.265625 
Q 51.609375 14.546875 45.953125 7.46875 
Q 39.0625 -1.21875 27.15625 -1.21875 
Q 17.390625 -1.21875 11.203125 4.25 
Q 5.03125 9.71875 4.15625 18.75 
z
" id="ArialMT-53"/>
      </defs>
      <g style="fill:#262626;" transform="translate(781.63821 647.373594)scale(0.11 -0.11)">
       <use xlink:href="#ArialMT-50"/>
       <use x="55.615234" xlink:href="#ArialMT-48"/>
       <use x="111.230469" xlink:href="#ArialMT-49"/>
       <use x="166.845703" xlink:href="#ArialMT-57"/>
       <use x="222.460938" xlink:href="#ArialMT-45"/>
       <use x="255.761719" xlink:href="#ArialMT-48"/>
       <use x="311.376953" xlink:href="#ArialMT-53"/>
      </g>
     </g>
    </g>
    <g id="xtick_6">
     <g id="line2d_6">
      <path clip-path="url(#p878aa60a67)" d="M 940.789058 630 
L 940.789058 86.4 
" style="fill:none;stroke:#ffffff;stroke-linecap:round;"/>
     </g>
     <g id="text_6">
      <!-- 2019-07 -->
      <defs>
       <path d="M 4.734375 62.203125 
L 4.734375 70.65625 
L 51.078125 70.65625 
L 51.078125 63.8125 
Q 44.234375 56.546875 37.515625 44.484375 
Q 30.8125 32.421875 27.15625 19.671875 
Q 24.515625 10.6875 23.78125 0 
L 14.75 0 
Q 14.890625 8.453125 18.0625 20.40625 
Q 21.234375 32.375 27.171875 43.484375 
Q 33.109375 54.59375 39.796875 62.203125 
z
" id="ArialMT-55"/>
      </defs>
      <g style="fill:#262626;" transform="translate(920.606636 647.373594)scale(0.11 -0.11)">
       <use xlink:href="#ArialMT-50"/>
       <use x="55.615234" xlink:href="#ArialMT-48"/>
       <use x="111.230469" xlink:href="#ArialMT-49"/>
       <use x="166.845703" xlink:href="#ArialMT-57"/>
       <use x="222.460938" xlink:href="#ArialMT-45"/>
       <use x="255.761719" xlink:href="#ArialMT-48"/>
       <use x="311.376953" xlink:href="#ArialMT-55"/>
      </g>
     </g>
    </g>
    <g id="text_7">
     <!-- DATE -->
     <defs>
      <path d="M 7.71875 0 
L 7.71875 71.578125 
L 32.375 71.578125 
Q 40.71875 71.578125 45.125 70.5625 
Q 51.265625 69.140625 55.609375 65.4375 
Q 61.28125 60.640625 64.078125 53.1875 
Q 66.890625 45.75 66.890625 36.1875 
Q 66.890625 28.03125 64.984375 21.734375 
Q 63.09375 15.4375 60.109375 11.296875 
Q 57.125 7.171875 53.578125 4.796875 
Q 50.046875 2.4375 45.046875 1.21875 
Q 40.046875 0 33.546875 0 
z
M 17.1875 8.453125 
L 32.46875 8.453125 
Q 39.546875 8.453125 43.578125 9.765625 
Q 47.609375 11.078125 50 13.484375 
Q 53.375 16.84375 55.25 22.53125 
Q 57.125 28.21875 57.125 36.328125 
Q 57.125 47.5625 53.4375 53.59375 
Q 49.75 59.625 44.484375 61.671875 
Q 40.671875 63.140625 32.234375 63.140625 
L 17.1875 63.140625 
z
" id="ArialMT-68"/>
      <path d="M -0.140625 0 
L 27.34375 71.578125 
L 37.546875 71.578125 
L 66.84375 0 
L 56.0625 0 
L 47.703125 21.6875 
L 17.78125 21.6875 
L 9.90625 0 
z
M 20.515625 29.390625 
L 44.78125 29.390625 
L 37.3125 49.21875 
Q 33.890625 58.25 32.234375 64.0625 
Q 30.859375 57.171875 28.375 50.390625 
z
" id="ArialMT-65"/>
      <path d="M 25.921875 0 
L 25.921875 63.140625 
L 2.34375 63.140625 
L 2.34375 71.578125 
L 59.078125 71.578125 
L 59.078125 63.140625 
L 35.40625 63.140625 
L 35.40625 0 
z
" id="ArialMT-84"/>
      <path d="M 7.90625 0 
L 7.90625 71.578125 
L 59.671875 71.578125 
L 59.671875 63.140625 
L 17.390625 63.140625 
L 17.390625 41.21875 
L 56.984375 41.21875 
L 56.984375 32.8125 
L 17.390625 32.8125 
L 17.390625 8.453125 
L 61.328125 8.453125 
L 61.328125 0 
z
" id="ArialMT-69"/>
     </defs>
     <g style="fill:#262626;" transform="translate(534.838438 663.580781)scale(0.14 -0.14)">
      <use xlink:href="#ArialMT-68"/>
      <use x="72.216797" xlink:href="#ArialMT-65"/>
      <use x="138.806641" xlink:href="#ArialMT-84"/>
      <use x="199.890625" xlink:href="#ArialMT-69"/>
     </g>
    </g>
   </g>
   <g id="matplotlib.axis_2">
    <g id="ytick_1">
     <g id="line2d_7">
      <path clip-path="url(#p878aa60a67)" d="M 135 571.79518 
L 972 571.79518 
" style="fill:none;stroke:#ffffff;stroke-linecap:round;"/>
     </g>
     <g id="text_8">
      <!-- 65000 -->
      <defs>
       <path d="M 49.75 54.046875 
L 41.015625 53.375 
Q 39.84375 58.546875 37.703125 60.890625 
Q 34.125 64.65625 28.90625 64.65625 
Q 24.703125 64.65625 21.53125 62.3125 
Q 17.390625 59.28125 14.984375 53.46875 
Q 12.59375 47.65625 12.5 36.921875 
Q 15.671875 41.75 20.265625 44.09375 
Q 24.859375 46.4375 29.890625 46.4375 
Q 38.671875 46.4375 44.84375 39.96875 
Q 51.03125 33.5 51.03125 23.25 
Q 51.03125 16.5 48.125 10.71875 
Q 45.21875 4.9375 40.140625 1.859375 
Q 35.0625 -1.21875 28.609375 -1.21875 
Q 17.625 -1.21875 10.6875 6.859375 
Q 3.765625 14.9375 3.765625 33.5 
Q 3.765625 54.25 11.421875 63.671875 
Q 18.109375 71.875 29.4375 71.875 
Q 37.890625 71.875 43.28125 67.140625 
Q 48.6875 62.40625 49.75 54.046875 
z
M 13.875 23.1875 
Q 13.875 18.65625 15.796875 14.5 
Q 17.71875 10.359375 21.1875 8.171875 
Q 24.65625 6 28.46875 6 
Q 34.03125 6 38.03125 10.484375 
Q 42.046875 14.984375 42.046875 22.703125 
Q 42.046875 30.125 38.078125 34.390625 
Q 34.125 38.671875 28.125 38.671875 
Q 22.171875 38.671875 18.015625 34.390625 
Q 13.875 30.125 13.875 23.1875 
z
" id="ArialMT-54"/>
      </defs>
      <g style="fill:#262626;" transform="translate(94.914844 575.731977)scale(0.11 -0.11)">
       <use xlink:href="#ArialMT-54"/>
       <use x="55.615234" xlink:href="#ArialMT-53"/>
       <use x="111.230469" xlink:href="#ArialMT-48"/>
       <use x="166.845703" xlink:href="#ArialMT-48"/>
       <use x="222.460938" xlink:href="#ArialMT-48"/>
      </g>
     </g>
    </g>
    <g id="ytick_2">
     <g id="line2d_8">
      <path clip-path="url(#p878aa60a67)" d="M 135 500.103966 
L 972 500.103966 
" style="fill:none;stroke:#ffffff;stroke-linecap:round;"/>
     </g>
     <g id="text_9">
      <!-- 67500 -->
      <g style="fill:#262626;" transform="translate(94.914844 504.040762)scale(0.11 -0.11)">
       <use xlink:href="#ArialMT-54"/>
       <use x="55.615234" xlink:href="#ArialMT-55"/>
       <use x="111.230469" xlink:href="#ArialMT-53"/>
       <use x="166.845703" xlink:href="#ArialMT-48"/>
       <use x="222.460938" xlink:href="#ArialMT-48"/>
      </g>
     </g>
    </g>
    <g id="ytick_3">
     <g id="line2d_9">
      <path clip-path="url(#p878aa60a67)" d="M 135 428.412751 
L 972 428.412751 
" style="fill:none;stroke:#ffffff;stroke-linecap:round;"/>
     </g>
     <g id="text_10">
      <!-- 70000 -->
      <g style="fill:#262626;" transform="translate(94.914844 432.349548)scale(0.11 -0.11)">
       <use xlink:href="#ArialMT-55"/>
       <use x="55.615234" xlink:href="#ArialMT-48"/>
       <use x="111.230469" xlink:href="#ArialMT-48"/>
       <use x="166.845703" xlink:href="#ArialMT-48"/>
       <use x="222.460938" xlink:href="#ArialMT-48"/>
      </g>
     </g>
    </g>
    <g id="ytick_4">
     <g id="line2d_10">
      <path clip-path="url(#p878aa60a67)" d="M 135 356.721536 
L 972 356.721536 
" style="fill:none;stroke:#ffffff;stroke-linecap:round;"/>
     </g>
     <g id="text_11">
      <!-- 72500 -->
      <g style="fill:#262626;" transform="translate(94.914844 360.658333)scale(0.11 -0.11)">
       <use xlink:href="#ArialMT-55"/>
       <use x="55.615234" xlink:href="#ArialMT-50"/>
       <use x="111.230469" xlink:href="#ArialMT-53"/>
       <use x="166.845703" xlink:href="#ArialMT-48"/>
       <use x="222.460938" xlink:href="#ArialMT-48"/>
      </g>
     </g>
    </g>
    <g id="ytick_5">
     <g id="line2d_11">
      <path clip-path="url(#p878aa60a67)" d="M 135 285.030321 
L 972 285.030321 
" style="fill:none;stroke:#ffffff;stroke-linecap:round;"/>
     </g>
     <g id="text_12">
      <!-- 75000 -->
      <g style="fill:#262626;" transform="translate(94.914844 288.967118)scale(0.11 -0.11)">
       <use xlink:href="#ArialMT-55"/>
       <use x="55.615234" xlink:href="#ArialMT-53"/>
       <use x="111.230469" xlink:href="#ArialMT-48"/>
       <use x="166.845703" xlink:href="#ArialMT-48"/>
       <use x="222.460938" xlink:href="#ArialMT-48"/>
      </g>
     </g>
    </g>
    <g id="ytick_6">
     <g id="line2d_12">
      <path clip-path="url(#p878aa60a67)" d="M 135 213.339106 
L 972 213.339106 
" style="fill:none;stroke:#ffffff;stroke-linecap:round;"/>
     </g>
     <g id="text_13">
      <!-- 77500 -->
      <g style="fill:#262626;" transform="translate(94.914844 217.275903)scale(0.11 -0.11)">
       <use xlink:href="#ArialMT-55"/>
       <use x="55.615234" xlink:href="#ArialMT-55"/>
       <use x="111.230469" xlink:href="#ArialMT-53"/>
       <use x="166.845703" xlink:href="#ArialMT-48"/>
       <use x="222.460938" xlink:href="#ArialMT-48"/>
      </g>
     </g>
    </g>
    <g id="ytick_7">
     <g id="line2d_13">
      <path clip-path="url(#p878aa60a67)" d="M 135 141.647892 
L 972 141.647892 
" style="fill:none;stroke:#ffffff;stroke-linecap:round;"/>
     </g>
     <g id="text_14">
      <!-- 80000 -->
      <g style="fill:#262626;" transform="translate(94.914844 145.584688)scale(0.11 -0.11)">
       <use xlink:href="#ArialMT-56"/>
       <use x="55.615234" xlink:href="#ArialMT-48"/>
       <use x="111.230469" xlink:href="#ArialMT-48"/>
       <use x="166.845703" xlink:href="#ArialMT-48"/>
       <use x="222.460938" xlink:href="#ArialMT-48"/>
      </g>
     </g>
    </g>
    <g id="text_15">
     <!-- AVERAGE ENTRIES -->
     <defs>
      <path d="M 28.171875 0 
L 0.4375 71.578125 
L 10.6875 71.578125 
L 29.296875 19.578125 
Q 31.546875 13.328125 33.0625 7.859375 
Q 34.71875 13.71875 36.921875 19.578125 
L 56.25 71.578125 
L 65.921875 71.578125 
L 37.890625 0 
z
" id="ArialMT-86"/>
      <path d="M 7.859375 0 
L 7.859375 71.578125 
L 39.59375 71.578125 
Q 49.171875 71.578125 54.140625 69.640625 
Q 59.125 67.71875 62.109375 62.828125 
Q 65.09375 57.953125 65.09375 52.046875 
Q 65.09375 44.4375 60.15625 39.203125 
Q 55.21875 33.984375 44.921875 32.5625 
Q 48.6875 30.765625 50.640625 29 
Q 54.78125 25.203125 58.5 19.484375 
L 70.953125 0 
L 59.03125 0 
L 49.5625 14.890625 
Q 45.40625 21.34375 42.71875 24.75 
Q 40.046875 28.171875 37.921875 29.53125 
Q 35.796875 30.90625 33.59375 31.453125 
Q 31.984375 31.78125 28.328125 31.78125 
L 17.328125 31.78125 
L 17.328125 0 
z
M 17.328125 39.984375 
L 37.703125 39.984375 
Q 44.1875 39.984375 47.84375 41.328125 
Q 51.515625 42.671875 53.421875 45.625 
Q 55.328125 48.578125 55.328125 52.046875 
Q 55.328125 57.125 51.640625 60.390625 
Q 47.953125 63.671875 39.984375 63.671875 
L 17.328125 63.671875 
z
" id="ArialMT-82"/>
      <path d="M 41.21875 28.078125 
L 41.21875 36.46875 
L 71.53125 36.53125 
L 71.53125 9.96875 
Q 64.546875 4.390625 57.125 1.578125 
Q 49.703125 -1.21875 41.890625 -1.21875 
Q 31.34375 -1.21875 22.71875 3.296875 
Q 14.109375 7.8125 9.71875 16.359375 
Q 5.328125 24.90625 5.328125 35.453125 
Q 5.328125 45.90625 9.6875 54.953125 
Q 14.0625 64.015625 22.265625 68.40625 
Q 30.46875 72.796875 41.15625 72.796875 
Q 48.921875 72.796875 55.1875 70.28125 
Q 61.46875 67.78125 65.03125 63.28125 
Q 68.609375 58.796875 70.453125 51.5625 
L 61.921875 49.21875 
Q 60.296875 54.6875 57.90625 57.8125 
Q 55.515625 60.9375 51.0625 62.8125 
Q 46.625 64.703125 41.21875 64.703125 
Q 34.71875 64.703125 29.984375 62.71875 
Q 25.25 60.75 22.34375 57.515625 
Q 19.4375 54.296875 17.828125 50.4375 
Q 15.09375 43.796875 15.09375 36.03125 
Q 15.09375 26.46875 18.390625 20.015625 
Q 21.6875 13.578125 27.984375 10.453125 
Q 34.28125 7.328125 41.359375 7.328125 
Q 47.515625 7.328125 53.375 9.6875 
Q 59.234375 12.0625 62.25 14.75 
L 62.25 28.078125 
z
" id="ArialMT-71"/>
      <path id="ArialMT-32"/>
      <path d="M 7.625 0 
L 7.625 71.578125 
L 17.328125 71.578125 
L 54.9375 15.375 
L 54.9375 71.578125 
L 64.015625 71.578125 
L 64.015625 0 
L 54.296875 0 
L 16.703125 56.25 
L 16.703125 0 
z
" id="ArialMT-78"/>
      <path d="M 9.328125 0 
L 9.328125 71.578125 
L 18.796875 71.578125 
L 18.796875 0 
z
" id="ArialMT-73"/>
      <path d="M 4.5 23 
L 13.421875 23.78125 
Q 14.0625 18.40625 16.375 14.96875 
Q 18.703125 11.53125 23.578125 9.40625 
Q 28.46875 7.28125 34.578125 7.28125 
Q 39.984375 7.28125 44.140625 8.890625 
Q 48.296875 10.5 50.3125 13.296875 
Q 52.34375 16.109375 52.34375 19.4375 
Q 52.34375 22.796875 50.390625 25.3125 
Q 48.4375 27.828125 43.953125 29.546875 
Q 41.0625 30.671875 31.203125 33.03125 
Q 21.34375 35.40625 17.390625 37.5 
Q 12.25 40.1875 9.734375 44.15625 
Q 7.234375 48.140625 7.234375 53.078125 
Q 7.234375 58.5 10.296875 63.203125 
Q 13.375 67.921875 19.28125 70.359375 
Q 25.203125 72.796875 32.421875 72.796875 
Q 40.375 72.796875 46.453125 70.234375 
Q 52.546875 67.671875 55.8125 62.6875 
Q 59.078125 57.71875 59.328125 51.421875 
L 50.25 50.734375 
Q 49.515625 57.515625 45.28125 60.984375 
Q 41.0625 64.453125 32.8125 64.453125 
Q 24.21875 64.453125 20.28125 61.296875 
Q 16.359375 58.15625 16.359375 53.71875 
Q 16.359375 49.859375 19.140625 47.359375 
Q 21.875 44.875 33.421875 42.265625 
Q 44.96875 39.65625 49.265625 37.703125 
Q 55.515625 34.8125 58.484375 30.390625 
Q 61.46875 25.984375 61.46875 20.21875 
Q 61.46875 14.5 58.203125 9.4375 
Q 54.9375 4.390625 48.796875 1.578125 
Q 42.671875 -1.21875 35.015625 -1.21875 
Q 25.296875 -1.21875 18.71875 1.609375 
Q 12.15625 4.4375 8.421875 10.125 
Q 4.6875 15.828125 4.5 23 
z
" id="ArialMT-83"/>
     </defs>
     <g style="fill:#262626;" transform="translate(88.132344 424.321563)rotate(-90)scale(0.14 -0.14)">
      <use xlink:href="#ArialMT-65"/>
      <use x="66.589844" xlink:href="#ArialMT-86"/>
      <use x="133.289062" xlink:href="#ArialMT-69"/>
      <use x="199.988281" xlink:href="#ArialMT-82"/>
      <use x="272.205078" xlink:href="#ArialMT-65"/>
      <use x="338.904297" xlink:href="#ArialMT-71"/>
      <use x="416.6875" xlink:href="#ArialMT-69"/>
      <use x="483.386719" xlink:href="#ArialMT-32"/>
      <use x="511.169922" xlink:href="#ArialMT-69"/>
      <use x="577.869141" xlink:href="#ArialMT-78"/>
      <use x="650.085938" xlink:href="#ArialMT-84"/>
      <use x="711.169922" xlink:href="#ArialMT-82"/>
      <use x="783.386719" xlink:href="#ArialMT-73"/>
      <use x="811.169922" xlink:href="#ArialMT-69"/>
      <use x="877.869141" xlink:href="#ArialMT-83"/>
     </g>
    </g>
   </g>
   <g id="line2d_14">
    <path clip-path="url(#p878aa60a67)" d="M 173.045455 395.134262 
L 175.323625 356.275011 
L 177.601796 308.845378 
L 179.879967 299.575672 
L 182.158138 291.418359 
L 184.436309 247.862791 
L 186.71448 273.610389 
L 188.992651 304.434807 
L 191.270822 269.549288 
L 193.548993 224.515353 
L 195.827164 220.158885 
L 198.105335 220.312144 
L 200.383506 225.313515 
L 204.939848 311.327041 
L 207.218019 284.19711 
L 209.496189 242.202627 
L 211.77436 239.456885 
L 214.052531 242.137627 
L 216.330702 250.538626 
L 218.608873 291.787202 
L 220.887044 335.733981 
L 223.165215 310.292075 
L 225.443386 270.575779 
L 227.721557 269.81445 
L 229.999728 275.511002 
L 232.277899 286.855484 
L 234.55607 326.977775 
L 236.834241 371.619735 
L 239.112412 344.862981 
L 241.390582 307.347956 
L 243.668753 307.459284 
L 245.946924 312.321096 
L 248.225095 324.625411 
L 252.781437 408.427853 
L 255.059608 418.137392 
L 257.337779 381.177799 
L 259.61595 375.853531 
L 261.894121 373.309927 
L 264.172292 373.485937 
L 266.450463 407.570298 
L 268.728634 450.491351 
L 271.006805 420.495555 
L 273.284976 380.598279 
L 275.563146 367.605919 
L 277.841317 361.144279 
L 280.119488 357.946086 
L 282.397659 388.850735 
L 284.67583 423.522263 
L 286.954001 386.694773 
L 289.232172 341.729405 
L 291.510343 338.476281 
L 293.788514 327.93079 
L 296.066685 321.551483 
L 298.344856 347.759943 
L 300.623027 380.52149 
L 302.901198 345.029113 
L 305.179369 297.850367 
L 307.457539 284.022629 
L 309.73571 273.815521 
L 312.013881 266.928959 
L 314.292052 294.368596 
L 316.570223 325.314794 
L 318.848394 288.427911 
L 321.126565 241.813136 
L 323.404736 189.897545 
L 325.682907 176.440753 
L 327.961078 172.030947 
L 330.239249 204.20042 
L 332.51742 243.192603 
L 334.795591 224.2182 
L 337.073762 175.157831 
L 339.351932 158.978876 
L 341.630103 148.924072 
L 343.908274 150.722852 
L 346.186445 187.197494 
L 348.464616 231.006562 
L 350.742787 199.711276 
L 353.020958 154.314487 
L 357.5773 140.396513 
L 359.855471 132.152151 
L 362.133642 168.668852 
L 364.411813 213.541053 
L 366.689984 184.211444 
L 368.968155 139.164189 
L 371.246326 131.808734 
L 373.524496 127.853673 
L 375.802667 128.746468 
L 380.359009 217.416711 
L 382.63718 185.794641 
L 384.915351 137.704875 
L 387.193522 131.288607 
L 389.471693 126.393021 
L 391.749864 129.304449 
L 394.028035 165.970905 
L 396.306206 204.531984 
L 398.584377 172.814389 
L 400.862548 134.606157 
L 403.140719 114.067867 
L 405.418889 111.109091 
L 407.69706 113.925823 
L 409.975231 151.817211 
L 412.253402 198.352839 
L 414.531573 176.163866 
L 416.809744 131.271337 
L 419.087915 125.81127 
L 421.366086 124.228519 
L 423.644257 132.470205 
L 425.922428 169.423044 
L 428.200599 217.501148 
L 430.47877 184.3294 
L 432.756941 137.113311 
L 435.035112 139.116331 
L 437.313283 195.68892 
L 439.591453 231.67415 
L 441.869624 278.983916 
L 444.147795 328.958619 
L 446.425966 293.146468 
L 448.704137 248.412233 
L 450.982308 242.319499 
L 453.260479 241.474244 
L 455.53865 238.722831 
L 457.816821 274.554673 
L 460.094992 321.784655 
L 462.373163 289.591029 
L 464.651334 249.114106 
L 466.929505 244.393701 
L 469.207676 235.265594 
L 471.485846 232.715999 
L 473.764017 269.654499 
L 476.042188 316.528828 
L 478.320359 282.276168 
L 480.59853 232.905519 
L 482.876701 215.121127 
L 487.433043 209.239898 
L 489.711214 245.635138 
L 491.989385 286.649204 
L 494.267556 254.687158 
L 496.545727 202.475816 
L 498.823898 197.245098 
L 501.102069 196.66545 
L 503.38024 197.671167 
L 505.65841 178.500999 
L 507.936581 187.758852 
L 510.214752 179.989373 
L 512.492923 191.107629 
L 514.771094 207.896628 
L 517.049265 219.074212 
L 519.327436 240.479807 
L 521.605607 277.692964 
L 523.883778 322.078684 
L 526.161949 320.490134 
L 528.44012 329.334982 
L 532.996462 345.420005 
L 535.274633 355.623227 
L 537.552803 409.445932 
L 539.830974 468.237571 
L 542.109145 442.997866 
L 544.387316 402.299943 
L 546.665487 404.90364 
L 548.943658 412.235517 
L 551.221829 422.991748 
L 553.5 473.092755 
L 555.778171 533.46517 
L 558.056342 508.357186 
L 560.334513 466.633408 
L 562.612684 468.74712 
L 564.890855 476.328928 
L 567.169026 489.518965 
L 569.447197 538.93556 
L 571.725367 591.804039 
L 574.003538 605.290909 
L 576.281709 571.800852 
L 578.55988 540.926791 
L 580.838051 488.858577 
L 583.116222 474.668241 
L 585.394393 504.475473 
L 587.672564 539.379854 
L 589.950735 514.071517 
L 592.228906 476.372835 
L 594.507077 449.750096 
L 596.785248 403.323438 
L 599.063419 403.573943 
L 601.34159 442.338753 
L 603.61976 489.687455 
L 605.897931 447.973683 
L 608.176102 399.663235 
L 610.454273 391.979976 
L 612.732444 387.689209 
L 615.010615 386.516978 
L 617.288786 425.394965 
L 619.566957 472.499662 
L 621.845128 432.212321 
L 624.123299 389.262465 
L 626.40147 382.509535 
L 628.679641 377.76415 
L 630.957812 380.554755 
L 633.235983 419.006162 
L 635.514154 459.975238 
L 637.792324 454.07897 
L 640.070495 400.048711 
L 642.348666 358.386811 
L 644.626837 353.596181 
L 646.905008 354.009633 
L 649.183179 390.441515 
L 651.46135 439.217732 
L 653.739521 405.496861 
L 656.017692 354.920589 
L 658.295863 351.050092 
L 660.574034 347.904855 
L 662.852205 346.47906 
L 665.130376 381.538677 
L 667.408547 424.908867 
L 669.686717 402.106663 
L 671.964888 349.867856 
L 674.243059 342.49921 
L 676.52123 336.118309 
L 678.799401 336.614476 
L 681.077572 373.431261 
L 683.355743 426.350338 
L 685.633914 389.661706 
L 687.912085 336.513599 
L 690.190256 328.698173 
L 692.468427 314.872984 
L 694.746598 314.99196 
L 697.024769 351.067361 
L 699.30294 391.604251 
L 701.581111 356.901051 
L 703.859281 309.093398 
L 706.137452 268.975313 
L 708.415623 264.263447 
L 710.693794 260.274166 
L 712.971965 295.818097 
L 715.250136 338.652865 
L 717.528307 302.173252 
L 719.806478 248.200091 
L 722.084649 240.223694 
L 724.36282 237.22235 
L 726.640991 236.053114 
L 728.919162 275.056512 
L 731.197333 324.154798 
L 733.475504 284.842777 
L 735.753674 233.11371 
L 738.031845 212.077022 
L 740.310016 208.855761 
L 742.588187 210.152958 
L 744.866358 246.840188 
L 747.144529 292.220472 
L 749.4227 259.079631 
L 751.700871 203.21516 
L 753.979042 197.340877 
L 756.257213 196.665323 
L 758.535384 200.025187 
L 760.813555 237.794987 
L 763.091726 285.614366 
L 765.369897 254.821491 
L 767.648068 207.272054 
L 769.926238 197.019573 
L 772.204409 193.333434 
L 774.48258 206.512764 
L 776.760751 248.04339 
L 779.038922 294.650454 
L 781.317093 263.610261 
L 783.595264 218.84359 
L 785.873435 213.916523 
L 788.151606 212.219321 
L 790.429777 218.185942 
L 792.707948 257.497708 
L 794.986119 302.525463 
L 797.26429 268.692308 
L 799.542461 217.807986 
L 801.820631 210.059727 
L 804.098802 208.554403 
L 806.376973 209.879002 
L 808.655144 252.268456 
L 810.933315 302.766218 
L 813.211486 272.795084 
L 815.489657 227.288305 
L 817.767828 220.632365 
L 820.045999 218.845565 
L 822.32417 221.955116 
L 824.602341 261.648407 
L 826.880512 311.926953 
L 829.158683 279.757799 
L 831.436854 230.436728 
L 833.715024 224.305759 
L 835.993195 223.555774 
L 838.271366 227.686143 
L 840.549537 264.929889 
L 842.827708 296.654876 
L 845.105879 259.26641 
L 847.38405 208.907952 
L 849.662221 198.883354 
L 851.940392 195.341298 
L 854.218563 201.171291 
L 858.774905 284.546836 
L 861.053076 293.910346 
L 863.331247 251.735328 
L 865.609418 245.353726 
L 867.887588 243.319225 
L 870.165759 247.094325 
L 872.44393 286.693302 
L 874.722101 332.861234 
L 877.000272 297.414548 
L 879.278443 247.071448 
L 881.556614 240.192787 
L 883.834785 239.054841 
L 886.112956 242.7875 
L 888.391127 282.348114 
L 890.669298 326.582995 
L 892.947469 293.955208 
L 895.22564 242.240097 
L 897.503811 235.470025 
L 899.781981 232.931073 
L 902.060152 236.396467 
L 904.338323 277.315136 
L 906.616494 326.417245 
L 908.894665 295.7949 
L 911.172836 249.607533 
L 913.451007 243.940167 
L 915.729178 243.35676 
L 918.007349 247.679644 
L 922.563691 326.578662 
L 924.841862 290.7003 
L 927.120033 244.609731 
L 929.398204 194.477052 
L 931.676375 188.057916 
L 933.954545 190.659511 
L 933.954545 190.659511 
" style="fill:none;stroke:#4c72b0;stroke-linecap:round;stroke-width:1.5;"/>
   </g>
   <g id="patch_3">
    <path d="M 135 630 
L 135 86.4 
" style="fill:none;stroke:#ffffff;stroke-linecap:square;stroke-linejoin:miter;stroke-width:1.25;"/>
   </g>
   <g id="patch_4">
    <path d="M 972 630 
L 972 86.4 
" style="fill:none;stroke:#ffffff;stroke-linecap:square;stroke-linejoin:miter;stroke-width:1.25;"/>
   </g>
   <g id="patch_5">
    <path d="M 135 630 
L 972 630 
" style="fill:none;stroke:#ffffff;stroke-linecap:square;stroke-linejoin:miter;stroke-width:1.25;"/>
   </g>
   <g id="patch_6">
    <path d="M 135 86.4 
L 972 86.4 
" style="fill:none;stroke:#ffffff;stroke-linecap:square;stroke-linejoin:miter;stroke-width:1.25;"/>
   </g>
   <g id="text_16">
    <!-- TOP 15 STATIONS (HIGH FOOT TRAFFIC) -->
    <defs>
     <path d="M 4.828125 34.859375 
Q 4.828125 52.6875 14.390625 62.765625 
Q 23.96875 72.859375 39.109375 72.859375 
Q 49.03125 72.859375 56.984375 68.109375 
Q 64.9375 63.375 69.109375 54.90625 
Q 73.296875 46.4375 73.296875 35.6875 
Q 73.296875 24.8125 68.890625 16.21875 
Q 64.5 7.625 56.4375 3.203125 
Q 48.390625 -1.21875 39.0625 -1.21875 
Q 28.953125 -1.21875 20.984375 3.65625 
Q 13.03125 8.546875 8.921875 16.984375 
Q 4.828125 25.4375 4.828125 34.859375 
z
M 14.59375 34.71875 
Q 14.59375 21.78125 21.546875 14.328125 
Q 28.515625 6.890625 39.015625 6.890625 
Q 49.703125 6.890625 56.609375 14.40625 
Q 63.53125 21.921875 63.53125 35.75 
Q 63.53125 44.484375 60.578125 51 
Q 57.625 57.515625 51.921875 61.109375 
Q 46.234375 64.703125 39.15625 64.703125 
Q 29.109375 64.703125 21.84375 57.78125 
Q 14.59375 50.875 14.59375 34.71875 
z
" id="ArialMT-79"/>
     <path d="M 7.71875 0 
L 7.71875 71.578125 
L 34.71875 71.578125 
Q 41.84375 71.578125 45.609375 70.90625 
Q 50.875 70.015625 54.4375 67.546875 
Q 58.015625 65.09375 60.1875 60.640625 
Q 62.359375 56.203125 62.359375 50.875 
Q 62.359375 41.75 56.546875 35.421875 
Q 50.734375 29.109375 35.546875 29.109375 
L 17.1875 29.109375 
L 17.1875 0 
z
M 17.1875 37.546875 
L 35.6875 37.546875 
Q 44.875 37.546875 48.734375 40.96875 
Q 52.59375 44.390625 52.59375 50.59375 
Q 52.59375 55.078125 50.3125 58.265625 
Q 48.046875 61.46875 44.34375 62.5 
Q 41.9375 63.140625 35.5 63.140625 
L 17.1875 63.140625 
z
" id="ArialMT-80"/>
     <path d="M 23.390625 -21.046875 
Q 16.109375 -11.859375 11.078125 0.4375 
Q 6.0625 12.75 6.0625 25.921875 
Q 6.0625 37.546875 9.8125 48.1875 
Q 14.203125 60.546875 23.390625 72.796875 
L 29.6875 72.796875 
Q 23.78125 62.640625 21.875 58.296875 
Q 18.890625 51.5625 17.1875 44.234375 
Q 15.09375 35.109375 15.09375 25.875 
Q 15.09375 2.390625 29.6875 -21.046875 
z
" id="ArialMT-40"/>
     <path d="M 8.015625 0 
L 8.015625 71.578125 
L 17.484375 71.578125 
L 17.484375 42.1875 
L 54.6875 42.1875 
L 54.6875 71.578125 
L 64.15625 71.578125 
L 64.15625 0 
L 54.6875 0 
L 54.6875 33.734375 
L 17.484375 33.734375 
L 17.484375 0 
z
" id="ArialMT-72"/>
     <path d="M 8.203125 0 
L 8.203125 71.578125 
L 56.5 71.578125 
L 56.5 63.140625 
L 17.671875 63.140625 
L 17.671875 40.96875 
L 51.265625 40.96875 
L 51.265625 32.515625 
L 17.671875 32.515625 
L 17.671875 0 
z
" id="ArialMT-70"/>
     <path d="M 58.796875 25.09375 
L 68.265625 22.703125 
Q 65.28125 11.03125 57.546875 4.90625 
Q 49.8125 -1.21875 38.625 -1.21875 
Q 27.046875 -1.21875 19.796875 3.484375 
Q 12.546875 8.203125 8.765625 17.140625 
Q 4.984375 26.078125 4.984375 36.328125 
Q 4.984375 47.515625 9.25 55.828125 
Q 13.53125 64.15625 21.40625 68.46875 
Q 29.296875 72.796875 38.765625 72.796875 
Q 49.515625 72.796875 56.828125 67.328125 
Q 64.15625 61.859375 67.046875 51.953125 
L 57.71875 49.75 
Q 55.21875 57.5625 50.484375 61.125 
Q 45.75 64.703125 38.578125 64.703125 
Q 30.328125 64.703125 24.78125 60.734375 
Q 19.234375 56.78125 16.984375 50.109375 
Q 14.75 43.453125 14.75 36.375 
Q 14.75 27.25 17.40625 20.4375 
Q 20.0625 13.625 25.671875 10.25 
Q 31.296875 6.890625 37.84375 6.890625 
Q 45.796875 6.890625 51.3125 11.46875 
Q 56.84375 16.0625 58.796875 25.09375 
z
" id="ArialMT-67"/>
     <path d="M 12.359375 -21.046875 
L 6.0625 -21.046875 
Q 20.65625 2.390625 20.65625 25.875 
Q 20.65625 35.0625 18.5625 44.09375 
Q 16.890625 51.421875 13.921875 58.15625 
Q 12.015625 62.546875 6.0625 72.796875 
L 12.359375 72.796875 
Q 21.53125 60.546875 25.921875 48.1875 
Q 29.6875 37.546875 29.6875 25.921875 
Q 29.6875 12.75 24.625 0.4375 
Q 19.578125 -11.859375 12.359375 -21.046875 
z
" id="ArialMT-41"/>
    </defs>
    <g style="fill:#262626;" transform="translate(356.307812 59.195)scale(0.2 -0.2)">
     <use xlink:href="#ArialMT-84"/>
     <use x="61.068359" xlink:href="#ArialMT-79"/>
     <use x="138.851562" xlink:href="#ArialMT-80"/>
     <use x="205.535156" xlink:href="#ArialMT-32"/>
     <use x="233.318359" xlink:href="#ArialMT-49"/>
     <use x="288.933594" xlink:href="#ArialMT-53"/>
     <use x="344.548828" xlink:href="#ArialMT-32"/>
     <use x="372.332031" xlink:href="#ArialMT-83"/>
     <use x="439.03125" xlink:href="#ArialMT-84"/>
     <use x="500.005859" xlink:href="#ArialMT-65"/>
     <use x="566.595703" xlink:href="#ArialMT-84"/>
     <use x="627.679688" xlink:href="#ArialMT-73"/>
     <use x="655.462891" xlink:href="#ArialMT-79"/>
     <use x="733.246094" xlink:href="#ArialMT-78"/>
     <use x="805.462891" xlink:href="#ArialMT-83"/>
     <use x="872.162109" xlink:href="#ArialMT-32"/>
     <use x="899.945312" xlink:href="#ArialMT-40"/>
     <use x="933.246094" xlink:href="#ArialMT-72"/>
     <use x="1005.462891" xlink:href="#ArialMT-73"/>
     <use x="1033.246094" xlink:href="#ArialMT-71"/>
     <use x="1111.029297" xlink:href="#ArialMT-72"/>
     <use x="1183.246094" xlink:href="#ArialMT-32"/>
     <use x="1211.029297" xlink:href="#ArialMT-70"/>
     <use x="1272.113281" xlink:href="#ArialMT-79"/>
     <use x="1349.896484" xlink:href="#ArialMT-79"/>
     <use x="1427.679688" xlink:href="#ArialMT-84"/>
     <use x="1488.748047" xlink:href="#ArialMT-32"/>
     <use x="1516.515625" xlink:href="#ArialMT-84"/>
     <use x="1577.599609" xlink:href="#ArialMT-82"/>
     <use x="1649.816406" xlink:href="#ArialMT-65"/>
     <use x="1716.515625" xlink:href="#ArialMT-70"/>
     <use x="1777.599609" xlink:href="#ArialMT-70"/>
     <use x="1838.683594" xlink:href="#ArialMT-73"/>
     <use x="1866.466797" xlink:href="#ArialMT-67"/>
     <use x="1938.683594" xlink:href="#ArialMT-41"/>
    </g>
    <!-- AVERAGE ENTRIES PER DAY - 30 DAYS ROLLING -->
    <defs>
     <path d="M 27.875 0 
L 27.875 30.328125 
L 0.296875 71.578125 
L 11.8125 71.578125 
L 25.921875 50 
Q 29.828125 43.953125 33.203125 37.890625 
Q 36.421875 43.5 41.015625 50.53125 
L 54.890625 71.578125 
L 65.921875 71.578125 
L 37.359375 30.328125 
L 37.359375 0 
z
" id="ArialMT-89"/>
     <path d="M 7.328125 0 
L 7.328125 71.578125 
L 16.796875 71.578125 
L 16.796875 8.453125 
L 52.046875 8.453125 
L 52.046875 0 
z
" id="ArialMT-76"/>
    </defs>
    <g style="fill:#262626;" transform="translate(315.685938 80.583125)scale(0.2 -0.2)">
     <use xlink:href="#ArialMT-65"/>
     <use x="66.589844" xlink:href="#ArialMT-86"/>
     <use x="133.289062" xlink:href="#ArialMT-69"/>
     <use x="199.988281" xlink:href="#ArialMT-82"/>
     <use x="272.205078" xlink:href="#ArialMT-65"/>
     <use x="338.904297" xlink:href="#ArialMT-71"/>
     <use x="416.6875" xlink:href="#ArialMT-69"/>
     <use x="483.386719" xlink:href="#ArialMT-32"/>
     <use x="511.169922" xlink:href="#ArialMT-69"/>
     <use x="577.869141" xlink:href="#ArialMT-78"/>
     <use x="650.085938" xlink:href="#ArialMT-84"/>
     <use x="711.169922" xlink:href="#ArialMT-82"/>
     <use x="783.386719" xlink:href="#ArialMT-73"/>
     <use x="811.169922" xlink:href="#ArialMT-69"/>
     <use x="877.869141" xlink:href="#ArialMT-83"/>
     <use x="944.568359" xlink:href="#ArialMT-32"/>
     <use x="972.351562" xlink:href="#ArialMT-80"/>
     <use x="1039.050781" xlink:href="#ArialMT-69"/>
     <use x="1105.75" xlink:href="#ArialMT-82"/>
     <use x="1177.966797" xlink:href="#ArialMT-32"/>
     <use x="1205.75" xlink:href="#ArialMT-68"/>
     <use x="1277.966797" xlink:href="#ArialMT-65"/>
     <use x="1344.556641" xlink:href="#ArialMT-89"/>
     <use x="1411.240234" xlink:href="#ArialMT-32"/>
     <use x="1439.023438" xlink:href="#ArialMT-45"/>
     <use x="1472.324219" xlink:href="#ArialMT-32"/>
     <use x="1500.107422" xlink:href="#ArialMT-51"/>
     <use x="1555.722656" xlink:href="#ArialMT-48"/>
     <use x="1611.337891" xlink:href="#ArialMT-32"/>
     <use x="1639.121094" xlink:href="#ArialMT-68"/>
     <use x="1711.337891" xlink:href="#ArialMT-65"/>
     <use x="1777.927734" xlink:href="#ArialMT-89"/>
     <use x="1844.626953" xlink:href="#ArialMT-83"/>
     <use x="1911.326172" xlink:href="#ArialMT-32"/>
     <use x="1939.109375" xlink:href="#ArialMT-82"/>
     <use x="2011.326172" xlink:href="#ArialMT-79"/>
     <use x="2089.109375" xlink:href="#ArialMT-76"/>
     <use x="2144.724609" xlink:href="#ArialMT-76"/>
     <use x="2200.339844" xlink:href="#ArialMT-73"/>
     <use x="2228.123047" xlink:href="#ArialMT-78"/>
     <use x="2300.339844" xlink:href="#ArialMT-71"/>
    </g>
   </g>
  </g>
 </g>
 <defs>
  <clipPath id="p878aa60a67">
   <rect height="543.6" width="837" x="135" y="86.4"/>
  </clipPath>
 </defs>
</svg>
